<?xml version="1.0" encoding="UTF-8"?>
<svg width="16px" height="16px" viewBox="0 0 16 16" version="1.1" xmlns="http://www.w3.org/2000/svg" xmlns:xlink="http://www.w3.org/1999/xlink">
    <!-- Generator: Sketch 48.2 (47327) - http://www.bohemiancoding.com/sketch -->
    <title>icons/dribbble-black</title>
    <desc>Created with Sketch.</desc>
    <defs></defs>
    <g id="Symbols" stroke="none" stroke-width="1" fill="none" fill-rule="evenodd">
        <g id="icons/dribbble-black" fill="#000000" fill-rule="nonzero">
            <path d="M7.99968381,0 C3.58131392,0.000334792626 0,3.58187191 0,8.00035339 C0,12.4180537 3.58131392,16 7.99968381,16 C12.4180537,16 15.9995164,12.4180537 16,8.00035339 C15.9995164,3.58187191 12.4180537,0.000334792626 7.99968381,0 Z M12.9013826,4.14793184 C13.6819331,5.13910401 14.1706559,6.36641658 14.2322949,7.70670306 C13.3291732,7.51501568 12.4758612,7.42172014 11.6803567,7.42172014 L11.6803567,7.42153414 L11.6744793,7.42153414 C11.034021,7.42153414 10.4329566,7.47967646 9.86645029,7.58015145 C9.72877612,7.24271768 9.5892048,6.91860122 9.44859189,6.60817405 C10.7102393,6.05479904 11.9212214,5.266846 12.9013826,4.14793184 Z M7.99968381,1.75877726 C9.47187858,1.75877726 10.822432,2.27346513 11.8916853,3.13031105 C11.0734521,4.10991428 9.99344829,4.81937705 8.82673319,5.32033842 C8.00693765,3.73509533 7.21478109,2.60104111 6.67327262,1.90772278 C7.10191878,1.81260448 7.54436584,1.75877726 7.99968381,1.75877726 Z M5.24288973,2.40939093 C5.67611138,2.92110286 6.54348468,4.04663847 7.46989308,5.80392777 C5.58579177,6.36477982 3.68855916,6.49653931 2.54062964,6.49620452 C2.50789436,6.49620452 2.47553108,6.49620452 2.44376298,6.49586973 L2.4427214,6.49586973 C2.24939726,6.49586973 2.08315412,6.4928194 1.94436398,6.48857869 C2.39220491,4.69654536 3.61988947,3.21240965 5.24288973,2.40939093 Z M1.75825647,8.00035339 C1.75825647,7.97100324 1.75929805,7.9411695 1.76104641,7.91044297 C1.93926769,7.91702723 2.16781945,7.9226815 2.44290739,7.9226815 L2.44446976,7.9226815 C3.69908653,7.91449768 5.88963468,7.80967039 8.10960739,7.10880063 C8.23061632,7.3733984 8.35039768,7.64889553 8.46880267,7.93492003 C6.98630373,8.43074791 5.81869584,9.22067251 4.95507966,10.0073236 C4.12367798,10.7645873 3.56197035,11.5146344 3.23376198,12.0153354 C2.3153514,10.9279661 1.75874006,9.53057889 1.75825647,8.00035339 Z M7.99968381,14.2420411 C6.6107036,14.2420411 5.3304938,13.7826684 4.29192987,13.0118642 C4.51266981,12.6483166 4.98595498,11.9503856 5.73961039,11.2292051 C6.51502731,10.4861514 7.58543373,9.72122469 8.98300695,9.26601832 C9.45804049,10.5976374 9.88787702,12.1198651 10.2153042,13.8333709 C9.5255198,14.0960343 8.78019702,14.2420411 7.99968381,14.2420411 Z M11.5321552,13.1337287 C11.2154786,11.5840481 10.8173729,10.1866608 10.3802454,8.93959551 C10.7856048,8.88145319 11.2111263,8.84864351 11.6602692,8.84864351 L11.6764136,8.84864351 L11.6774552,8.84864351 L11.6784968,8.84864351 C12.4229268,8.84864351 13.240974,8.94115787 14.1281372,9.14274023 C13.8210208,10.7930819 12.8651134,12.2144254 11.5321552,13.1337287 Z" id="Dribbble"></path>
        </g>
    </g>
</svg>