<?xml version="1.0" encoding="UTF-8"?>
<svg width="16px" height="16px" viewBox="0 0 16 16" version="1.1" xmlns="http://www.w3.org/2000/svg" xmlns:xlink="http://www.w3.org/1999/xlink">
    <!-- Generator: Sketch 48.2 (47327) - http://www.bohemiancoding.com/sketch -->
    <title>icons/dribbble-black</title>
    <desc>Created with Sketch.</desc>
    <defs></defs>
    <g id="Symbols" stroke="none" stroke-width="1" fill="none" fill-rule="evenodd">
        <g id="icons/dribbble-black" fill="#000000" fill-rule="nonzero">
            <path d="M7.98329466,0 C3.5739768,0.000334106729 0,3.57453364 0,7.98396288 C0,12.3926125 3.5739768,15.9672204 7.98329466,15.9672204 C12.3926125,15.9672204 15.9667378,12.3926125 15.9672204,7.98396288 C15.9667378,3.57453364 12.3926125,0.000334106729 7.98329466,0 Z M12.8749513,4.13943387 C13.6539026,5.12857541 14.1416241,6.35337355 14.2031369,7.69091415 C13.3018654,7.49961949 12.4503016,7.40651508 11.6564269,7.40651508 L11.6564269,7.40632947 L11.6505615,7.40632947 C11.0114153,7.40632947 10.4115824,7.46435267 9.84623666,7.56462181 C9.70884455,7.22787935 9.56955916,6.90442691 9.42923434,6.59463573 C10.688297,6.04239443 11.8967981,5.25605568 12.8749513,4.13943387 Z M7.98329466,1.75517401 C9.45247332,1.75517401 10.8002599,2.26880742 11.8673225,3.12389791 C11.0507657,4.1014942 9.97297448,4.80950348 8.80864965,5.30943852 C7.99053364,3.72744316 7.2,2.5957123 6.65960093,1.90381439 C7.08736891,1.80889095 7.52890951,1.75517401 7.98329466,1.75517401 Z M5.23214849,2.40445476 C5.6644826,2.91511833 6.53007889,4.03834803 7.45458933,5.79203712 C5.57434803,6.35174014 3.68100232,6.4832297 2.53542459,6.48289559 C2.50275638,6.48289559 2.4704594,6.48289559 2.43875638,6.48256148 L2.43771694,6.48256148 C2.24478886,6.48256148 2.07888631,6.4795174 1.94038051,6.47528538 C2.38730394,4.68692343 3.61247332,3.20582831 5.23214849,2.40445476 Z M1.75465429,7.98396288 C1.75465429,7.95467285 1.75569374,7.92490023 1.75743852,7.89423666 C1.93529466,7.90080742 2.16337819,7.90645012 2.43790255,7.90645012 L2.43946172,7.90645012 C3.69150812,7.89828306 5.87756845,7.79367053 8.09299304,7.09423666 C8.21375406,7.35829234 8.33329002,7.63322506 8.45145244,7.91866357 C6.97199072,8.41347564 5.80677494,9.2017819 4.94492807,9.98682135 C4.1152297,10.7425336 3.55467285,11.4910441 3.22713689,11.9907193 C2.31060789,10.9055777 1.75513689,9.51105336 1.75465429,7.98396288 Z M7.98329466,14.2128631 C6.59716009,14.2128631 5.31957309,13.7544316 4.28313689,12.9852065 C4.50342459,12.6224037 4.97574014,11.9259026 5.72785151,11.2061995 C6.50167981,10.4646682 7.56989327,9.70130858 8.96460325,9.2470348 C9.43866357,10.5759258 9.86761949,12.0950348 10.1943759,13.8050302 C9.50600464,14.0671555 8.76220882,14.2128631 7.98329466,14.2128631 Z M11.508529,13.1068213 C11.1925012,11.5603155 10.7952111,10.1657912 10.3589791,8.92128074 C10.7635081,8.86325754 11.1881578,8.83051508 11.6363805,8.83051508 L11.6524919,8.83051508 L11.6535313,8.83051508 L11.6545708,8.83051508 C12.3974756,8.83051508 13.2138469,8.92283991 14.0991926,9.12400928 C13.7927053,10.7709698 12.8387564,12.1894014 11.508529,13.1068213 Z" id="Dribbble"></path>
        </g>
    </g>
</svg>