<?xml version="1.0" encoding="UTF-8"?>
<svg width="24px" height="24px" viewBox="0 0 24 24" version="1.1" xmlns="http://www.w3.org/2000/svg" xmlns:xlink="http://www.w3.org/1999/xlink">
    <!-- Generator: Sketch 48.2 (47327) - http://www.bohemiancoding.com/sketch -->
    <title>icons/dribbble-white</title>
    <desc>Created with Sketch.</desc>
    <defs></defs>
    <g id="Symbols" stroke="none" stroke-width="1" fill="none" fill-rule="evenodd">
        <g id="icons/dribbble-white" fill="#FFFFFF" fill-rule="nonzero">
            <path d="M11.9995257,0 C5.37197088,0.000502188939 0,5.37280786 0,12.0005301 C0,18.6270805 5.37197088,24 11.9995257,24 C18.6270805,24 23.9992746,18.6270805 24,12.0005301 C23.9992746,5.37280786 18.6270805,0.000502188939 11.9995257,0 Z M19.352074,6.22189776 C20.5228996,7.70865602 21.2559838,9.54962487 21.3484424,11.5600546 C19.9937598,11.2725235 18.7137918,11.1325802 17.5205351,11.1325802 L17.5205351,11.1323012 L17.5117189,11.1323012 C16.5510315,11.1323012 15.6494349,11.2195147 14.7996754,11.3702272 C14.5931642,10.8640765 14.3838072,10.3779018 14.1728878,9.91226108 C16.065359,9.08219856 17.8818322,7.900269 19.352074,6.22189776 Z M11.9995257,2.63816589 C14.2078179,2.63816589 16.2336481,3.41019769 17.8375279,4.69546658 C16.6101782,6.16487142 14.9901724,7.22906558 13.2400998,7.98050763 C12.0104065,5.602643 10.8221716,3.90156167 10.0099089,2.86158417 C10.6528782,2.71890672 11.3165488,2.63816589 11.9995257,2.63816589 Z M7.86433459,3.6140864 C8.51416708,4.38165429 9.81522702,6.06995771 11.2048396,8.70589165 C8.37868766,9.54716972 5.53283874,9.74480897 3.81094446,9.74430678 C3.76184155,9.74430678 3.71329661,9.74430678 3.66564446,9.74380459 L3.6640821,9.74380459 C3.37409589,9.74380459 3.12473118,9.73922909 2.91654596,9.73286803 C3.58830737,7.04481804 5.42983421,4.81861447 7.86433459,3.6140864 Z M2.63738471,12.0005301 C2.63738471,11.9565049 2.63894708,11.9117542 2.64156962,11.8656645 C2.90890153,11.8755408 3.25172918,11.8840223 3.66436109,11.8840223 L3.66670464,11.8840223 C5.54862979,11.8717465 8.83445202,11.7145056 12.1644111,10.6632009 C12.3459245,11.0600976 12.5255965,11.4733433 12.703204,11.9023801 C10.4794556,12.6461219 8.72804376,13.8310088 7.4326195,15.0109854 C6.18551696,16.146881 5.34295552,17.2719516 4.85064296,18.023003 C3.47302711,16.3919492 2.6381101,14.2958683 2.63738471,12.0005301 Z M11.9995257,21.3630617 C9.9160554,21.3630617 7.99574069,20.6740027 6.43789481,19.5177963 C6.76900471,18.9724749 7.47893248,17.9255784 8.60941558,16.8438076 C9.77254096,15.7292272 11.3781506,14.581837 13.4745104,13.8990275 C14.1870607,15.8964561 14.8318155,18.1797976 15.3229563,20.7500564 C14.2882797,21.1440515 13.1702955,21.3630617 11.9995257,21.3630617 Z M17.2982328,19.7005931 C16.8232179,17.3760721 16.2260594,15.2799913 15.5703681,13.4093933 C16.1784073,13.3221798 16.8166894,13.2729653 17.4904038,13.2729653 L17.5146204,13.2729653 L17.5161828,13.2729653 L17.5177452,13.2729653 C18.6343902,13.2729653 19.861461,13.4117368 21.1922058,13.7141103 C20.7315312,16.1896228 19.2976702,18.3216381 17.2982328,19.7005931 Z" id="Dribbble"></path>
        </g>
    </g>
</svg>