<?xml version="1.0" encoding="UTF-8"?>
<svg width="60px" height="60px" viewBox="0 0 60 60" version="1.1" xmlns="http://www.w3.org/2000/svg" xmlns:xlink="http://www.w3.org/1999/xlink">
    <!-- Generator: Sketch 48.2 (47327) - http://www.bohemiancoding.com/sketch -->
    <title>icons/expand</title>
    <desc>Created with Sketch.</desc>
    <defs></defs>
    <g id="Symbols" stroke="none" stroke-width="1" fill="none" fill-rule="evenodd">
        <g id="icons/expand">
            <circle id="Oval-2" fill="#56425E" cx="30" cy="30" r="30"></circle>
            <g id="expand" transform="translate(17.000000, 17.000000)" fill="#FFFFFF" fill-rule="nonzero">
                <path d="M24.9636792,0.291509434 C24.9160377,0.176415094 24.8240566,0.0844339623 24.7084906,0.0363207547 C24.6509434,0.0127358491 24.5896226,0 24.5283019,0 L18.8679245,0 C18.6075472,0 18.3962264,0.211320755 18.3962264,0.471698113 C18.3962264,0.732075472 18.6075472,0.943396226 18.8679245,0.943396226 L23.3896226,0.943396226 L15.7042453,8.62877358 C15.5198113,8.81320755 15.5198113,9.11132075 15.7042453,9.29575472 C15.7962264,9.38773585 15.9169811,9.43396226 16.0377358,9.43396226 C16.1584906,9.43396226 16.2792453,9.38773585 16.3712264,9.29575472 L24.0566038,1.61037736 L24.0566038,6.13207547 C24.0566038,6.39245283 24.2679245,6.60377358 24.5283019,6.60377358 C24.7886792,6.60377358 25,6.39245283 25,6.13207547 L25,0.471698113 C25,0.410377358 24.9872642,0.349056604 24.9636792,0.291509434 Z" id="Shape"></path>
                <path d="M8.62877358,15.7042453 L0.943396226,23.3896226 L0.943396226,18.8679245 C0.943396226,18.6075472 0.732075472,18.3962264 0.471698113,18.3962264 C0.211320755,18.3962264 0,18.6075472 0,18.8679245 L0,24.5283019 C0,24.5896226 0.0127358491,24.6509434 0.0363207547,24.7084906 C0.0839622642,24.8235849 0.175943396,24.915566 0.291509434,24.9636792 C0.349056604,24.9872642 0.410377358,25 0.471698113,25 L6.13207547,25 C6.39245283,25 6.60377358,24.7886792 6.60377358,24.5283019 C6.60377358,24.2679245 6.39245283,24.0566038 6.13207547,24.0566038 L1.61037736,24.0566038 L9.29575472,16.3712264 C9.48018868,16.1867925 9.48018868,15.8886792 9.29575472,15.7042453 C9.11132075,15.5198113 8.81320755,15.5198113 8.62877358,15.7042453 Z" id="Shape"></path>
                <path d="M0.471698113,6.60377358 C0.732075472,6.60377358 0.943396226,6.39245283 0.943396226,6.13207547 L0.943396226,1.61037736 L8.62830189,9.29528302 C8.72028302,9.38726415 8.84103774,9.43349057 8.96179245,9.43349057 C9.08254717,9.43349057 9.20330189,9.38726415 9.29528302,9.29528302 C9.47971698,9.11084906 9.47971698,8.81273585 9.29528302,8.62830189 L1.61037736,0.943396226 L6.13207547,0.943396226 C6.39245283,0.943396226 6.60377358,0.732075472 6.60377358,0.471698113 C6.60377358,0.211320755 6.39245283,0 6.13207547,0 L0.471698113,0 C0.410377358,0 0.349056604,0.0127358491 0.291509434,0.0363207547 C0.175943396,0.0844339623 0.0844339623,0.175943396 0.0363207547,0.291509434 C0.0127358491,0.349056604 0,0.410377358 0,0.471698113 L0,6.13207547 C0,6.39245283 0.211320755,6.60377358 0.471698113,6.60377358 Z" id="Shape"></path>
                <path d="M24.5283019,18.3962264 C24.2679245,18.3962264 24.0566038,18.6075472 24.0566038,18.8679245 L24.0566038,23.3896226 L16.3712264,15.7037736 C16.1867925,15.5193396 15.8886792,15.5193396 15.7042453,15.7037736 C15.5198113,15.8882075 15.5198113,16.1863208 15.7042453,16.3707547 L23.3896226,24.0566038 L18.8679245,24.0566038 C18.6075472,24.0566038 18.3962264,24.2679245 18.3962264,24.5283019 C18.3962264,24.7886792 18.6075472,25 18.8679245,25 L24.5283019,25 C24.5896226,25 24.6509434,24.9872642 24.7084906,24.9636792 C24.8235849,24.9160377 24.915566,24.8240566 24.9636792,24.7084906 C24.9872642,24.6509434 25,24.5896226 25,24.5283019 L25,18.8679245 C25,18.6075472 24.7886792,18.3962264 24.5283019,18.3962264 Z" id="Shape"></path>
            </g>
        </g>
    </g>
</svg>