<?xml version="1.0" encoding="UTF-8"?>
<svg width="16px" height="16px" viewBox="0 0 16 16" version="1.1" xmlns="http://www.w3.org/2000/svg" xmlns:xlink="http://www.w3.org/1999/xlink">
    <!-- Generator: Sketch 48.2 (47327) - http://www.bohemiancoding.com/sketch -->
    <title>icons/github-colour</title>
    <desc>Created with Sketch.</desc>
    <defs></defs>
    <g id="Symbols" stroke="none" stroke-width="1" fill="none" fill-rule="evenodd">
        <g id="icons/github-colour" fill="#000000" fill-rule="nonzero">
            <g id="005-github-logo">
                <path d="M14.9268537,4.09758096 C14.2114715,2.84112286 13.2411013,1.84638324 12.0154875,1.11313769 C10.7896914,0.379854737 9.45148742,0.0133067602 7.99992703,0.0133067602 C6.54854907,0.0133067602 5.20990728,0.379966934 3.98436652,1.11313769 C2.75864334,1.84634584 1.78830955,2.84112286 1.07292736,4.09758096 C0.357654613,5.35400166 0,6.72602279 0,8.21360695 C0,10.000533 0.508589749,11.6073827 1.52602464,13.0345674 C2.54335007,14.4618643 3.85758393,15.4494981 5.46861675,15.997581 C5.65614554,16.0332597 5.79496792,16.008165 5.88522983,15.9229326 C5.97552822,15.837588 6.02062269,15.7307015 6.02062269,15.602722 C6.02062269,15.5813671 6.01883497,15.3892483 6.01536897,15.026141 C6.01179352,14.6630338 6.01011524,14.3462639 6.01011524,14.075981 L5.7705235,14.1184664 C5.61776416,14.1471514 5.42505461,14.1593061 5.19239487,14.1558654 C4.95984458,14.1525369 4.71842863,14.1275543 4.46847537,14.0811047 C4.21841266,14.0350665 3.98582589,13.9282922 3.77053262,13.7610063 C3.55534881,13.5937204 3.40258947,13.3747491 3.31229107,13.1044288 L3.20812868,12.8587171 C3.13869925,12.6951337 3.02939258,12.5134118 2.88006275,12.3142245 C2.73073292,12.1148503 2.57972482,11.9796901 2.42696547,11.9085198 L2.35403356,11.8550017 C2.3054366,11.8194353 2.26034213,11.7765386 2.21864069,11.7267604 C2.17697573,11.6769823 2.14578174,11.6271668 2.12494926,11.5772765 C2.1040803,11.5273488 2.12137381,11.4863968 2.17701222,11.454271 C2.23265062,11.4221453 2.33320108,11.4065499 2.47910139,11.4065499 L2.68735321,11.4384512 C2.82624856,11.4669867 2.99805266,11.5522191 3.20298441,11.6946721 C3.40780671,11.8370128 3.57618129,12.0220632 3.70814464,12.2497486 C3.86794544,12.5416855 4.06047256,12.764135 4.28627328,12.9172092 C4.51189157,13.0702835 4.73937056,13.1466897 4.96849133,13.1466897 C5.19761211,13.1466897 5.39550241,13.1288878 5.5622352,13.0934709 C5.72878558,13.057867 5.88504741,13.004349 6.03094772,12.933216 C6.09344516,12.4560791 6.26360747,12.0895311 6.54128871,11.8333103 C6.14550811,11.7906754 5.78967771,11.7264612 5.47361508,11.6410792 C5.15773488,11.555585 4.83131074,11.4168346 4.49456157,11.2244539 C4.15762999,11.0323351 3.87812453,10.7937666 3.65597224,10.5091599 C3.43378346,10.2244037 3.25143543,9.85056287 3.10918353,9.38797416 C2.96685866,8.92519846 2.89567799,8.39136458 2.89567799,7.78632294 C2.89567799,6.92483608 3.17003917,6.19174013 3.71865209,5.58662368 C3.46165739,4.93894713 3.48591938,4.2128822 3.79151104,3.40850368 C3.99290382,3.34436433 4.29156348,3.39249689 4.68734409,3.55260217 C5.08319766,3.71278226 5.37302814,3.84999933 5.55712742,3.9637672 C5.74122669,4.07749768 5.88873231,4.173875 5.99986318,4.25203899 C6.64581595,4.06702595 7.31241877,3.97450073 7.99985406,3.97450073 C8.68728936,3.97450073 9.35403812,4.06702595 10.0000274,4.25203899 L10.3958444,3.99589298 C10.6665207,3.82497937 10.9861588,3.6683522 11.3539925,3.52597406 C11.7220451,3.38367072 12.0034842,3.34447652 12.198018,3.40861588 C12.5103957,4.2130318 12.5382332,4.93905933 12.2811655,5.58673588 C12.8297419,6.19185233 13.1042126,6.92513527 13.1042126,7.78643513 C13.1042126,8.39147678 13.0327765,8.92699361 12.8906705,9.39332222 C12.7483822,9.85972563 12.5644653,10.2331924 12.338847,10.514508 C12.1129733,10.7957862 11.8316801,11.0324847 11.494931,11.2245661 C11.1581088,11.4167972 10.8315753,11.5555476 10.515695,11.6410418 C10.1996689,11.726536 9.8438385,11.7907876 9.4480579,11.8334973 C9.80903258,12.1537079 9.9895564,12.6591559 9.9895564,13.3496169 L9.9895564,15.6024228 C9.9895564,15.7304023 10.0329726,15.8372514 10.119878,15.9226334 C10.2066739,16.0078658 10.343745,16.0329605 10.5312738,15.9972445 C12.1425255,15.4492363 13.4567594,14.4615651 14.4740483,13.0342682 C15.4912278,11.6070835 16,10.0002338 16,8.21330776 C15.9996352,6.7259106 15.6417981,5.35400166 14.9268537,4.09758096 Z" id="Shape"></path>
            </g>
        </g>
    </g>
</svg>