<?xml version="1.0" encoding="UTF-8"?>
<svg width="19px" height="16px" viewBox="0 0 19 16" version="1.1" xmlns="http://www.w3.org/2000/svg" xmlns:xlink="http://www.w3.org/1999/xlink">
    <!-- Generator: Sketch 48.2 (47327) - http://www.bohemiancoding.com/sketch -->
    <title>icons/github-colour</title>
    <desc>Created with Sketch.</desc>
    <defs></defs>
    <g id="Symbols" stroke="none" stroke-width="1" fill="none" fill-rule="evenodd">
        <g id="icons/github-colour" fill="#000000" fill-rule="nonzero">
            <g id="005-github-logo" transform="translate(1.000000, 0.000000)">
                <path d="M14.9156751,3.99468941 C14.2008287,2.76988416 13.2311851,1.80020414 12.0064892,1.08543061 C10.7816111,0.370620614 9.44440925,0.0133067602 7.99393593,0.0133067602 C6.5436449,0.0133067602 5.20600562,0.370729985 3.98138265,1.08543061 C2.7565774,1.80016769 1.7869703,2.76988416 1.07212385,3.99468941 C0.357386768,5.2194582 0,6.5569152 0,8.00702395 C0,9.74893355 0.508208869,11.3153033 1.52488181,12.7065342 C2.54144537,14.0978744 3.854695,15.0606276 5.46452133,15.5949032 C5.65190968,15.629683 5.7906281,15.6052205 5.88082241,15.5221353 C5.97105318,15.4389407 6.01611388,15.3347469 6.01611388,15.2099915 C6.01611388,15.1891746 6.0143275,15.0018956 6.01086409,14.6479358 C6.00729132,14.293976 6.0056143,13.9851862 6.0056143,13.7217124 L5.76620199,13.7631274 C5.61355705,13.7910898 5.42099182,13.8029383 5.18850631,13.7995843 C4.95613018,13.7963396 4.71489502,13.7719864 4.46512896,13.726707 C4.21525352,13.6818286 3.98284093,13.5777442 3.76770889,13.4146726 C3.55268623,13.2516009 3.40004129,13.0381459 3.30981052,12.7746356 L3.20572613,12.5351139 C3.13634869,12.3756516 3.02712389,12.1985076 2.87790589,12.0043383 C2.72868789,11.8099866 2.57779288,11.6782315 2.42514793,11.6088541 L2.35227063,11.5566843 C2.30371007,11.5220138 2.25864937,11.4801977 2.21697916,11.4316736 C2.17534541,11.3831495 2.14417478,11.334589 2.1233579,11.2859555 C2.10250457,11.2372856 2.11978513,11.1973653 2.17538187,11.1660488 C2.2309786,11.1347324 2.33145376,11.1195298 2.47724481,11.1195298 L2.68534067,11.1506276 C2.824132,11.1784442 2.99580743,11.2615294 3.20058571,11.4003936 C3.40525462,11.5391485 3.57350311,11.7195371 3.70536763,11.9414866 C3.86504876,12.226069 4.0574317,12.4429145 4.28306331,12.5921325 C4.50851264,12.7413505 4.73582127,12.8158319 4.96477046,12.8158319 C5.19371965,12.8158319 5.39146175,12.7984784 5.55806968,12.7639538 C5.72449532,12.7292468 5.88064013,12.677077 6.02643118,12.607736 C6.08888181,12.1426192 6.25891669,11.7853053 6.53638998,11.5355393 C6.14090578,11.4939784 5.78534185,11.431382 5.46951592,11.3481509 C5.15387228,11.2648105 4.8276926,11.1295555 4.49119562,10.9420213 C4.15451636,10.7547423 3.87522022,10.5221839 3.6532343,10.2447471 C3.43121192,9.96716441 3.24900044,9.60274147 3.10685508,9.15180635 C2.9646368,8.70068896 2.89350943,8.18030349 2.89350943,7.59050413 C2.89350943,6.75071996 3.16766515,6.03609225 3.71586721,5.44621998 C3.45906497,4.81485978 3.48330879,4.10708596 3.7886716,3.32297145 C3.98991356,3.2604479 4.28834956,3.3073679 4.68383376,3.4634398 C5.07939088,3.6195846 5.36900431,3.75334488 5.55296572,3.8642467 C5.73692712,3.97511207 5.88432227,4.06906144 5.99536992,4.14525631 C6.64083893,3.96490414 7.30694254,3.87470983 7.99386302,3.87470983 C8.6807835,3.87470983 9.34703293,3.96490414 9.9925384,4.14525631 L10.3880591,3.89556316 C10.6585326,3.72895523 10.9779313,3.57627383 11.3454896,3.4374825 C11.7132666,3.29876408 11.9944949,3.26055727 12.188883,3.32308082 C12.5010268,4.10723179 12.5288434,4.81496915 12.2719682,5.44632935 C12.8201338,6.03620162 13.0943989,6.75101162 13.0943989,7.5906135 C13.0943989,8.18041286 13.0230163,8.70243889 12.8810168,9.15701969 C12.738835,9.6116734 12.5550558,9.97573178 12.3296065,10.2499604 C12.103902,10.5241526 11.8228195,10.7548882 11.4863225,10.9421307 C11.1497526,11.129519 10.8234635,11.264774 10.5078199,11.3481145 C10.1920304,11.4314549 9.83646651,11.4940878 9.44098231,11.5357216 C9.80168665,11.8478653 9.98207528,12.34058 9.98207528,13.0136469 L9.98207528,15.2096998 C9.98207528,15.3344553 10.025459,15.4386126 10.1122992,15.5218436 C10.1990302,15.6049288 10.3359986,15.6293914 10.523387,15.5945751 C12.1334321,15.0603725 13.4466817,14.0975828 14.4632088,12.7062425 C15.4796265,11.3150116 15.9880177,9.74864189 15.9880177,8.0067323 C15.9876531,6.55680583 15.6300841,5.2194582 14.9156751,3.99468941 Z" id="Shape"></path>
            </g>
        </g>
    </g>
</svg>