<?xml version="1.0" encoding="UTF-8"?>
<svg width="28px" height="24px" viewBox="0 0 28 24" version="1.1" xmlns="http://www.w3.org/2000/svg" xmlns:xlink="http://www.w3.org/1999/xlink">
    <!-- Generator: Sketch 48.2 (47327) - http://www.bohemiancoding.com/sketch -->
    <title>icons/github-white</title>
    <desc>Created with Sketch.</desc>
    <defs></defs>
    <g id="Symbols" stroke="none" stroke-width="1" fill="none" fill-rule="evenodd">
        <g id="icons/github-white" fill="#FFFFFF" fill-rule="nonzero">
            <path d="M24.363976,5.98948003 C23.2921634,4.15305526 21.838318,2.69915522 20.0020572,1.62745192 C18.1655231,0.555693957 16.1605754,0.0199516324 13.9857928,0.0199516324 C11.8112835,0.0199516324 9.80567986,0.555857943 7.9695284,1.62745192 C6.13310363,2.69910055 4.67931291,4.15305526 3.60750029,5.98948003 C2.53585165,7.82585014 2,9.83118051 2,12.0054165 C2,14.6171671 2.76198837,16.9657202 4.28634774,19.0516771 C5.81054313,21.1377979 7.77957793,22.5813122 10.1932881,23.3823839 C10.4742509,23.4345314 10.6822398,23.3978532 10.8174736,23.2732785 C10.9527621,23.1485398 11.0203243,22.9923158 11.0203243,22.8052624 C11.0203243,22.7740504 11.0176459,22.4932517 11.012453,21.9625382 C11.0070961,21.4318248 11.0045816,20.9688376 11.0045816,20.5737953 L10.6456162,20.6358913 C10.4167464,20.6778171 10.1280217,20.6955823 9.77944209,20.6905534 C9.43102647,20.6856884 9.06932797,20.6491742 8.69483856,20.581284 C8.32018517,20.5139951 7.97171488,20.357935 7.64915438,20.1134319 C7.32675787,19.8689287 7.09788804,19.5488827 6.96259958,19.1537857 L6.80653955,18.7946563 C6.70251775,18.5555647 6.53875038,18.289962 6.31501879,17.9988322 C6.0912872,17.707429 5.86504115,17.5098805 5.63617133,17.4058587 L5.52690198,17.3276374 C5.45409219,17.2756538 5.38652995,17.2129565 5.32405127,17.1402014 C5.26162726,17.0674462 5.21489125,16.9946365 5.18367924,16.9217173 C5.15241257,16.8487436 5.17832236,16.7888887 5.26168192,16.741934 C5.34504148,16.6949793 5.49568997,16.6721853 5.71428334,16.6721853 L6.02629407,16.718812 C6.23439233,16.7605191 6.49179572,16.8850938 6.79883221,17.0933014 C7.10570471,17.301345 7.35796987,17.5718126 7.55568235,17.9045949 C7.79510194,18.3312865 8.08355334,18.6564161 8.4218565,18.8801477 C8.75988635,19.1038793 9.10070396,19.2155538 9.44398136,19.2155538 C9.78725876,19.2155538 10.0837455,19.1895347 10.3335509,19.1377697 C10.5830829,19.0857315 10.8172003,19.0075102 11.0357937,18.903543 C11.1294297,18.2061652 11.3843733,17.6704228 11.8004058,17.2959334 C11.2074324,17.2336187 10.6743138,17.1397641 10.2007768,17.0149707 C9.72751319,16.8900134 9.23845222,16.6872173 8.7339219,16.406036 C8.22911827,16.1252372 7.81035264,15.7765483 7.47751568,15.3605704 C7.14462406,14.9443739 6.87142335,14.3979725 6.65829619,13.7218581 C6.4450597,13.0454705 6.33841413,12.265225 6.33841413,11.3809031 C6.33841413,10.1217637 6.74947242,9.05027908 7.57142501,8.16584782 C7.18638583,7.21921119 7.22273607,6.158003 7.68058503,4.98233256 C7.98231931,4.88858722 8.42978249,4.95893722 9.02275594,5.19294527 C9.61583871,5.42706265 10.0500737,5.62761755 10.3258982,5.79389937 C10.6017227,5.96012653 10.8227211,6.10099052 10.9892216,6.21523412 C11.9570124,5.94482117 12.955742,5.80958737 13.9856835,5.80958737 C15.015625,5.80958737 16.0145732,5.94482117 16.9824187,6.21523412 L17.5754468,5.84085404 C17.9809842,5.59104867 18.459878,5.36212418 19.0109804,5.15402593 C19.5624107,4.94603699 19.9840734,4.88875121 20.2755312,4.98249655 C20.7435473,6.15822165 20.7852545,7.21937518 20.400106,8.1660118 C21.2220039,9.05044307 21.6332262,10.122201 21.6332262,11.381067 C21.6332262,12.265389 21.526198,13.0480942 21.3132894,13.7296748 C21.1001076,14.4113647 20.8245564,14.9572195 20.4865266,15.3683871 C20.1481141,15.7795 19.72667,16.1254559 19.2221397,16.4062 C18.7175001,16.6871627 18.2282751,16.8899587 17.7550115,17.0149161 C17.2815292,17.1398734 16.7484106,17.2337827 16.1554372,17.2962067 C16.6962631,17.7642228 16.9667307,18.5029799 16.9667307,19.5121498 L16.9667307,22.8048251 C16.9667307,22.9918785 17.0317785,23.1480478 17.1619834,23.2728412 C17.2920243,23.3974159 17.4973894,23.4340941 17.7783521,23.3818919 C20.1923903,22.5809295 22.1614251,21.1373606 23.6855659,19.0512398 C25.2095426,16.965283 25.9718043,14.6167298 25.9718043,12.0049792 C25.9712577,9.83101652 25.4351327,7.82585014 24.363976,5.98948003 Z" id="Shape"></path>
        </g>
    </g>
</svg>