<?xml version="1.0" encoding="UTF-8"?>
<svg width="24px" height="24px" viewBox="0 0 24 24" version="1.1" xmlns="http://www.w3.org/2000/svg" xmlns:xlink="http://www.w3.org/1999/xlink">
    <!-- Generator: Sketch 48.2 (47327) - http://www.bohemiancoding.com/sketch -->
    <title>icons/github-white</title>
    <desc>Created with Sketch.</desc>
    <defs></defs>
    <g id="Symbols" stroke="none" stroke-width="1" fill="none" fill-rule="evenodd">
        <g id="icons/github-white" fill="#FFFFFF" fill-rule="nonzero">
            <path d="M22.3902806,6.14636294 C21.3172073,4.26167579 19.8616519,2.76956635 18.0232313,1.66969802 C16.1845371,0.569773598 14.1772311,0.0199516324 11.9998905,0.0199516324 C9.8228236,0.0199516324 7.81486093,0.569941893 5.97654978,1.66969802 C4.137965,2.76951025 2.68246433,4.26167579 1.60939103,6.14636294 C0.53648192,8.03099399 0,10.0890257 0,12.3204019 C0,15.000791 0.762884623,17.4110655 2.28903695,19.5518426 C3.81502511,21.692788 5.78637589,23.1742387 8.20292512,23.9963631 C8.4842183,24.0498811 8.69245188,24.0122389 8.82784474,23.8843903 C8.96329233,23.7563734 9.03093404,23.5960437 9.03093404,23.4040745 C9.03093404,23.3720422 9.02825245,23.0838639 9.02305345,22.539203 C9.01769028,21.9945421 9.01517287,21.5193873 9.01517287,21.1139631 L8.65578525,21.177691 C8.42664624,21.2207186 8.13758192,21.2389506 7.7885923,21.2337896 C7.43976687,21.2287968 7.07764294,21.191323 6.70271306,21.1216486 C6.327619,21.0525912 5.97873883,20.8924299 5.65579894,20.641501 C5.33302322,20.3905722 5.1038842,20.0621151 4.96843661,19.6566347 L4.81219302,19.2880672 C4.70804887,19.0426921 4.54408888,18.7701092 4.32009413,18.4713283 C4.09609938,18.1722669 3.86958723,17.9695267 3.64044821,17.8627711 L3.53105033,17.7824941 C3.4581549,17.7291444 3.3905132,17.6647993 3.32796103,17.5901321 C3.2654636,17.515465 3.21867261,17.4407417 3.1874239,17.3659062 C3.15612045,17.2910146 3.18206072,17.2295867 3.26551833,17.1813981 C3.34897593,17.1332094 3.49980162,17.1098163 3.71865209,17.1098163 L4.03102981,17.1576684 C4.23937284,17.2004716 4.49707898,17.3283202 4.80447661,17.5419996 C5.11171006,17.7555107 5.36427193,18.0330864 5.56221696,18.3746144 C5.80191816,18.8125197 6.09070884,19.1461939 6.42940991,19.3758053 C6.76783735,19.6054167 7.10905583,19.7200261 7.452737,19.7200261 C7.79641816,19.7200261 8.09325362,19.6933232 8.34335281,19.6401978 C8.59317837,19.586792 8.82757111,19.506515 9.04642158,19.3998155 C9.14016774,18.6841101 9.3954112,18.1342882 9.81193307,17.7499569 C9.21826217,17.6860046 8.68451656,17.5896834 8.21042262,17.4616104 C7.73660232,17.333369 7.24696611,17.1252434 6.74184236,16.8366724 C6.23644498,16.5484941 5.81718679,16.1906414 5.48395835,15.7637314 C5.15067519,15.336597 4.87715314,14.7758358 4.66377529,14.0819527 C4.450288,13.3877892 4.34351699,12.5870384 4.34351699,11.6794759 C4.34351699,10.3872456 4.75505876,9.28760168 5.57797814,8.37992702 C5.19248608,7.40841219 5.22887907,6.31931479 5.68726656,5.11274701 C5.98935573,5.01653798 6.43734523,5.08873683 7.03101613,5.32889475 C7.62479649,5.56916488 8.05954221,5.77499048 8.33569112,5.9456423 C8.61184004,6.11623801 8.83309847,6.260804 8.99979478,6.37804998 C9.96872392,6.10053042 10.9686281,5.96174258 11.9997811,5.96174258 C13.030934,5.96174258 14.0310572,6.10053042 15.000041,6.37804998 L15.5937667,5.99383096 C15.9997811,5.73746055 16.4792382,5.50251979 17.0309888,5.28895258 C17.5830677,5.07549757 18.0052264,5.01670628 18.297027,5.1129153 C18.7655936,6.31953919 18.8073497,7.40858049 18.4217482,8.38009531 C19.2446129,9.28776998 19.6563188,10.3876944 19.6563188,11.6796442 C19.6563188,12.5872067 19.5491647,13.3904819 19.3360058,14.0899748 C19.1225732,14.7895799 18.846698,15.3497801 18.5082705,15.7717535 C18.16946,16.1936707 17.7475202,16.5487185 17.2423965,16.8368407 C16.7371633,17.1251873 16.2473629,17.3333129 15.7735426,17.4615543 C15.2995034,17.5897956 14.7657578,17.6861729 14.1720869,17.7502374 C14.7135489,18.2305533 14.9843346,18.9887253 14.9843346,20.0244169 L14.9843346,23.4036257 C14.9843346,23.595595 15.0494589,23.7558685 15.1798169,23.8839415 C15.3100108,24.0117902 15.5156175,24.0494323 15.7969107,23.9958582 C18.2137883,23.173846 20.1851391,21.6923392 21.7110725,19.5513938 C23.2368417,17.4106168 24,15.0003422 24,12.3199531 C23.9994527,10.0888574 23.4626972,8.03099399 22.3902806,6.14636294 Z" id="Shape"></path>
        </g>
    </g>
</svg>