<?xml version="1.0" encoding="UTF-8"?>
<svg width="19px" height="16px" viewBox="0 0 19 16" version="1.1" xmlns="http://www.w3.org/2000/svg" xmlns:xlink="http://www.w3.org/1999/xlink">
    <!-- Generator: Sketch 48.2 (47327) - http://www.bohemiancoding.com/sketch -->
    <title>icons/github-black</title>
    <desc>Created with Sketch.</desc>
    <defs></defs>
    <g id="Symbols" stroke="none" stroke-width="1" fill="none" fill-rule="evenodd">
        <g id="icons/github-black" fill="#000000" fill-rule="nonzero">
            <path d="M15.9156751,3.99468941 C15.2008287,2.76988416 14.2311851,1.80020414 13.0064892,1.08543061 C11.7816111,0.370620614 10.4444093,0.0133067602 8.99393593,0.0133067602 C7.5436449,0.0133067602 6.20600562,0.370729985 4.98138265,1.08543061 C3.7565774,1.80016769 2.7869703,2.76988416 2.07212385,3.99468941 C1.35738677,5.2194582 1,6.5569152 1,8.00702395 C1,9.74893355 1.50820887,11.3153033 2.52488181,12.7065342 C3.54144537,14.0978744 4.854695,15.0606276 6.46452133,15.5949032 C6.65190968,15.629683 6.7906281,15.6052205 6.88082241,15.5221353 C6.97105318,15.4389407 7.01611388,15.3347469 7.01611388,15.2099915 C7.01611388,15.1891746 7.0143275,15.0018956 7.01086409,14.6479358 C7.00729132,14.293976 7.0056143,13.9851862 7.0056143,13.7217124 L6.76620199,13.7631274 C6.61355705,13.7910898 6.42099182,13.8029383 6.18850631,13.7995843 C5.95613018,13.7963396 5.71489502,13.7719864 5.46512896,13.726707 C5.21525352,13.6818286 4.98284093,13.5777442 4.76770889,13.4146726 C4.55268623,13.2516009 4.40004129,13.0381459 4.30981052,12.7746356 L4.20572613,12.5351139 C4.13634869,12.3756516 4.02712389,12.1985076 3.87790589,12.0043383 C3.72868789,11.8099866 3.57779288,11.6782315 3.42514793,11.6088541 L3.35227063,11.5566843 C3.30371007,11.5220138 3.25864937,11.4801977 3.21697916,11.4316736 C3.17534541,11.3831495 3.14417478,11.334589 3.1233579,11.2859555 C3.10250457,11.2372856 3.11978513,11.1973653 3.17538187,11.1660488 C3.2309786,11.1347324 3.33145376,11.1195298 3.47724481,11.1195298 L3.68534067,11.1506276 C3.824132,11.1784442 3.99580743,11.2615294 4.20058571,11.4003936 C4.40525462,11.5391485 4.57350311,11.7195371 4.70536763,11.9414866 C4.86504876,12.226069 5.0574317,12.4429145 5.28306331,12.5921325 C5.50851264,12.7413505 5.73582127,12.8158319 5.96477046,12.8158319 C6.19371965,12.8158319 6.39146175,12.7984784 6.55806968,12.7639538 C6.72449532,12.7292468 6.88064013,12.677077 7.02643118,12.607736 C7.08888181,12.1426192 7.25891669,11.7853053 7.53638998,11.5355393 C7.14090578,11.4939784 6.78534185,11.431382 6.46951592,11.3481509 C6.15387228,11.2648105 5.8276926,11.1295555 5.49119562,10.9420213 C5.15451636,10.7547423 4.87522022,10.5221839 4.6532343,10.2447471 C4.43121192,9.96716441 4.24900044,9.60274147 4.10685508,9.15180635 C3.9646368,8.70068896 3.89350943,8.18030349 3.89350943,7.59050413 C3.89350943,6.75071996 4.16766515,6.03609225 4.71586721,5.44621998 C4.45906497,4.81485978 4.48330879,4.10708596 4.7886716,3.32297145 C4.98991356,3.2604479 5.28834956,3.3073679 5.68383376,3.4634398 C6.07939088,3.6195846 6.36900431,3.75334488 6.55296572,3.8642467 C6.73692712,3.97511207 6.88432227,4.06906144 6.99536992,4.14525631 C7.64083893,3.96490414 8.30694254,3.87470983 8.99386302,3.87470983 C9.6807835,3.87470983 10.3470329,3.96490414 10.9925384,4.14525631 L11.3880591,3.89556316 C11.6585326,3.72895523 11.9779313,3.57627383 12.3454896,3.4374825 C12.7132666,3.29876408 12.9944949,3.26055727 13.188883,3.32308082 C13.5010268,4.10723179 13.5288434,4.81496915 13.2719682,5.44632935 C13.8201338,6.03620162 14.0943989,6.75101162 14.0943989,7.5906135 C14.0943989,8.18041286 14.0230163,8.70243889 13.8810168,9.15701969 C13.738835,9.6116734 13.5550558,9.97573178 13.3296065,10.2499604 C13.103902,10.5241526 12.8228195,10.7548882 12.4863225,10.9421307 C12.1497526,11.129519 11.8234635,11.264774 11.5078199,11.3481145 C11.1920304,11.4314549 10.8364665,11.4940878 10.4409823,11.5357216 C10.8016866,11.8478653 10.9820753,12.34058 10.9820753,13.0136469 L10.9820753,15.2096998 C10.9820753,15.3344553 11.025459,15.4386126 11.1122992,15.5218436 C11.1990302,15.6049288 11.3359986,15.6293914 11.523387,15.5945751 C13.1334321,15.0603725 14.4466817,14.0975828 15.4632088,12.7062425 C16.4796265,11.3150116 16.9880177,9.74864189 16.9880177,8.0067323 C16.9876531,6.55680583 16.6300841,5.2194582 15.9156751,3.99468941 Z" id="Shape"></path>
        </g>
    </g>
</svg>